# xmcd
#
# Track frame offsets:
#  150
#  13415
#  25204
#  38161
#  52902
#  72078
#  85020
#  104322
#  122509
#  136553
#
# Disc length: 2010 seconds
#
# Revision: 0
# Processed by: cddbd v1.4PL0 Copyright (c) Steve Scherf et al.
# Submitted via: AltoMP3_Maker 3.0
#
DISCID=7407d80a
DTITLE=DIONNE WARWICK - A TRIBUTE TO DIONNE WARWICK
DYEAR=1900
DGENRE=
TTITLE0=I SAY A LITTLE PAYER
TTITLE1=I'LL NEVER FALL IN LOVE AGAIN
TTITLE2=WALK ON BY
TTITLE3=YOU'LL NEVER GET TO HEAVEN  
TTITLE4=THAT'S  WHAT FRIENDS ARE
TTITLE5=I JUST DON'T
TTITLE6=HEARTBREAKER
TTITLE7=FRIENDS IN LOVE
TTITLE8=ALLIF
TTITLE9=I'LL NEVER LOVE WAY AGAIN
EXTD=
EXTT0=
EXTT1=
EXTT2=
EXTT3=
EXTT4=
EXTT5=
EXTT6=
EXTT7=
EXTT8=
EXTT9=
PLAYORDER=
